{"title":"Vantage Point (2008) 1080p BluRay {1920x1080p} {Dual Audio} {6Ch","uid":9377611,"size":1731275060,"categoryP":"video","categoryS":"hd___movies","magnet":"?xt=urn:btih:1b23403c928e627f3dbcd0f5d5d3777d98dfa5d0&amp;dn=Vantage+Point+%282008%29+1080p+BluRay+%7B1920x1080p%7D+%7BDual+Audio%7D+%7B6Ch&amp;tr=udp%3A%2F%2Ftracker.openbittorrent.com%3A80&amp;tr=udp%3A%2F%2Fopen.demonii.com%3A1337&amp;tr=udp%3A%2F%2Ftracker.coppersurfer.tk%3A6969&amp;tr=udp%3A%2F%2Fexodus.desync.com%3A6969","seeders":6,"leechers":3,"uploader":"SaNRiM","files":-1,"time":1387649213,"description":"Storyline\n\nThe President of the United States is in Salamanca, Spain, about to address the city in a public square. We see a plain-clothes cop, his girlfriend with another man, a mother and child, an American tourist with a video camera, and a Secret Service agent newly returned from medical leave. Shots ring out and the President falls; a few minutes later, we hear a distant explosion, then a bomb goes off in the square. Those minutes are retold, several times, emphasizing different characters' actions. Gradually, we discover who's behind the plot. Is the Secret Service one step ahead, or have the President's adversaries thought of everything?\n\n\n\nTorrent Info\n\nGeneral\n\nUnique ID : 222215772683052803485506935506563745635 (0xA72D33797D7FF8DBAF3BD3A06517C763)\nComplete name : Vantage Point (2008) 1080p BluRay {1920x1080p} {Dual Audio} {6Ch.} [Hindi DD 5.1-English DD 5.1] [Hin+Eng Sub]~SaNRiM~.mkv\nFormat : Matroska\nFormat version : Version 4 / Version 2\nFile size : 1.60 GiB\nDuration : 1h 30mn\nOverall bit rate : 2 549 Kbps\nEncoded date : UTC 2013-12-16 13:09:41\nWriting library : libebml v1.3.0 + libmatroska v1.4.1\n\n\nVideo\n\nID : 1\nFormat : AVC\nFormat/Info : Advanced Video Codec\nFormat profile : &lt;a class=&quot;__cf_email__&quot; href=&quot;/cdn-cgi/l/email-protection&quot; data-cfemail=&quot;b5fddcd2ddf5f9819b85&quot;&gt;[email&amp;#160;protected]&lt;/a&gt;&lt;script cf-hash='f9e31' type=&quot;text/javascript&quot;&gt;\n/* &lt;![CDATA[ */!function(){try{var t=&quot;currentScript&quot;in document?document.currentScript:function(){for(var t=document.getElementsByTagName(&quot;script&quot;),e=t.length;e--;)if(t[e].getAttribute(&quot;cf-hash&quot;))return t[e]}();if(t&amp;&amp;t.previousSibling){var e,r,n,i,c=t.previousSibling,a=c.getAttribute(&quot;data-cfemail&quot;);if(a){for(e=&quot;&quot;,r=parseInt(a.substr(0,2),16),n=2;a.length-n;n+=2)i=parseInt(a.substr(n,2),16)^r,e+=String.fromCharCode(i);e=document.createTextNode(e),c.parentNode.replaceChild(e,c)}}}catch(u){}}();/* ]]&gt; */&lt;/script&gt;\nFormat settings, CABAC : Yes\nFormat settings, ReFrames : 3 frames\nCodec ID : V_MPEG4/ISO/AVC\nDuration : 1h 30mn\nBit rate : 1 639 Kbps\nWidth : 1 920 pixels\nHeight : 1 080 pixels\nDisplay aspect ratio : 16:9\nFrame rate mode : Constant\nFrame rate : 23.976 fps\nColor space : YUV\nChroma subsampling : 4:2:0\nBit depth : 8 bits\nScan type : Progressive\nBits/(Pixel*Frame) : 0.033\nStream size : 1.01 GiB (63%)\nTitle : ~SaNRiM~\nWriting library : x264 core 79 r1342kMod e8501ef\nLanguage : English\nDefault : Yes\nForced : No\n\n\nAudio #1\n\nID : 2\nFormat : AC-3\nFormat/Info : Audio Coding 3\nMode extension : CM (complete main)\nFormat settings, Endianness : Big\nCodec ID : A_AC3\nDuration : 1h 30mn\nBit rate mode : Constant\nBit rate : 448 Kbps\nChannel(s) : 6 channels\nChannel positions : Front: L C R, Side: L R, LFE\nSampling rate : 48.0 KHz\nBit depth : 16 bits\nCompression mode : Lossy\nStream size : 289 MiB (18%)\nTitle : ~SaNRiM~\nLanguage : Hindi\nDefault : Yes\nForced : No\n\n\nAudio #2\n\nID : 3\nFormat : AC-3\nFormat/Info : Audio Coding 3\nMode extension : CM (complete main)\nFormat settings, Endianness : Big\nCodec ID : A_AC3\nDuration : 1h 30mn\nBit rate mode : Constant\nBit rate : 448 Kbps\nChannel(s) : 6 channels\nChannel positions : Front: L C R, Side: L R, LFE\nSampling rate : 44.1 KHz\nBit depth : 16 bits\nCompression mode : Lossy\nStream size : 289 MiB (18%)\nTitle : ~SaNRiM~\nLanguage : English\nDefault : No\nForced : No\n\n\nText\nID : 4\nFormat : PGS\nMuxing mode : zlib\nCodec ID : S_HDMV/PGS\nCodec ID/Info : The same subtitle format used on BDs/HD-DVDs\nDefault : Yes\nForced : No\n\n\n\nScreens\n &lt;a href=&quot;\nhttp://someimage.com/Bcq0wZJ&quot; rel=&quot;nofollow&quot; target=&quot;_NEW&quot;&gt;\nhttp://someimage.com/Bcq0wZJ&lt;/a&gt; &lt;a href=&quot;\nhttp://someimage.com/5DLXOLt&quot; rel=&quot;nofollow&quot; target=&quot;_NEW&quot;&gt;\nhttp://someimage.com/5DLXOLt&lt;/a&gt; &lt;a href=&quot;\nhttp://someimage.com/eTFGXVq&quot; rel=&quot;nofollow&quot; target=&quot;_NEW&quot;&gt;\nhttp://someimage.com/eTFGXVq&lt;/a&gt; &lt;a href=&quot;\nhttp://someimage.com/AQnlVC9&quot; rel=&quot;nofollow&quot; target=&quot;_NEW&quot;&gt;\nhttp://someimage.com/AQnlVC9&lt;/a&gt; &lt;a href=&quot;\nhttp://someimage.com/mSgNVxD&quot; rel=&quot;nofollow&quot; target=&quot;_NEW&quot;&gt;\nhttp://someimage.com/mSgNVxD&lt;/a&gt; &lt;a href=&quot;\nhttp://someimage.com/hndcQPZ&quot; rel=&quot;nofollow&quot; target=&quot;_NEW&quot;&gt;\nhttp://someimage.com/hndcQPZ&lt;/a&gt; &lt;a href=&quot;\nhttp://someimage.com/urjzaP5&quot; rel=&quot;nofollow&quot; target=&quot;_NEW&quot;&gt;\nhttp://someimage.com/urjzaP5&lt;/a&gt; &lt;a href=&quot;\nhttp://someimage.com/XAmngAy&quot; rel=&quot;nofollow&quot; target=&quot;_NEW&quot;&gt;\nhttp://someimage.com/XAmngAy&lt;/a&gt; &lt;a href=&quot;\nhttp://someimage.com/23yeMFR&quot; rel=&quot;nofollow&quot; target=&quot;_NEW&quot;&gt;\nhttp://someimage.com/23yeMFR&lt;/a&gt; &lt;a href=&quot;\nhttp://someimage.com/x2lEfoH&quot; rel=&quot;nofollow&quot; target=&quot;_NEW&quot;&gt;\nhttp://someimage.com/x2lEfoH&lt;/a&gt; &lt;a href=&quot;\nhttp://someimage.com/W4xhlGG&quot; rel=&quot;nofollow&quot; target=&quot;_NEW&quot;&gt;\nhttp://someimage.com/W4xhlGG&lt;/a&gt; &lt;a href=&quot;\nhttp://someimage.com/llC9MOm&quot; rel=&quot;nofollow&quot; target=&quot;_NEW&quot;&gt;\nhttp://someimage.com/llC9MOm&lt;/a&gt; &lt;a href=&quot;\nhttp://someimage.com/TfLL8aP&quot; rel=&quot;nofollow&quot; target=&quot;_NEW&quot;&gt;\nhttp://someimage.com/TfLL8aP&lt;/a&gt;\n\n\n              A BIG THANKS TO Mohsin Pathan FOR AUDIO\n\n\n\n                    If you like my work please comment\n                          Any request? Just PM me\n                       Please seed long after download\n                         Thank you &amp; enjoy the best\n                                 ~SaNRiM~ ","torrent":{"xt":"urn:btih:1b23403c928e627f3dbcd0f5d5d3777d98dfa5d0","amp;dn":"Vantage+Point+%282008%29+1080p+BluRay+%7B1920x1080p%7D+%7BDual+Audio%7D+%7B6Ch","amp;tr":["udp%3A%2F%2Ftracker.openbittorrent.com%3A80","udp%3A%2F%2Fopen.demonii.com%3A1337","udp%3A%2F%2Ftracker.coppersurfer.tk%3A6969","udp%3A%2F%2Fexodus.desync.com%3A6969"],"infoHash":"1b23403c928e627f3dbcd0f5d5d3777d98dfa5d0","infoHashBuffer":{"type":"Buffer","data":[27,35,64,60,146,142,98,127,61,188,208,245,213,211,119,125,152,223,165,208]},"announce":[],"urlList":[]}}